<svg width="470" height="69" viewBox="0 0 470 69" fill="none" xmlns="http://www.w3.org/2000/svg">
<g filter="url(#filter0_d_206_3)">
<path d="M55.52 1.72V60H41.92V35.36H18.24V60H4.64V1.72H18.24V26.08H41.92V1.72H55.52ZM89.9375 34.28C89.9375 33.2933 89.8042 32.3333 89.5375 31.4C89.2975 30.4667 88.8842 29.64 88.2975 28.92C87.7375 28.1733 86.9908 27.5733 86.0575 27.12C85.1242 26.6667 83.9908 26.44 82.6575 26.44C80.3108 26.44 78.4708 27.12 77.1375 28.48C75.8042 29.8133 74.9242 31.7467 74.4975 34.28H89.9375ZM74.3375 41.48C74.7375 44.9467 75.7908 47.4667 77.4975 49.04C79.2042 50.5867 81.4042 51.36 84.0975 51.36C85.5375 51.36 86.7775 51.1867 87.8175 50.84C88.8575 50.4933 89.7775 50.1067 90.5775 49.68C91.4042 49.2533 92.1508 48.8667 92.8175 48.52C93.5108 48.1733 94.2308 48 94.9775 48C95.9642 48 96.7108 48.36 97.2175 49.08L100.818 53.52C99.5375 54.9867 98.1508 56.1867 96.6575 57.12C95.1908 58.0267 93.6708 58.7467 92.0975 59.28C90.5508 59.7867 88.9908 60.1333 87.4175 60.32C85.8708 60.5333 84.3908 60.64 82.9775 60.64C80.0708 60.64 77.3375 60.1733 74.7775 59.24C72.2442 58.28 70.0175 56.8667 68.0975 55C66.2042 53.1333 64.6975 50.8133 63.5775 48.04C62.4842 45.2667 61.9375 42.04 61.9375 38.36C61.9375 35.5867 62.4042 32.96 63.3375 30.48C64.2975 28 65.6575 25.8267 67.4175 23.96C69.2042 22.0933 71.3508 20.6133 73.8575 19.52C76.3908 18.4267 79.2442 17.88 82.4175 17.88C85.1642 17.88 87.6708 18.3067 89.9375 19.16C92.2308 20.0133 94.1908 21.2533 95.8175 22.88C97.4708 24.5067 98.7508 26.5067 99.6575 28.88C100.591 31.2267 101.057 33.8933 101.057 36.88C101.057 37.8133 101.018 38.5733 100.938 39.16C100.858 39.7467 100.711 40.2133 100.498 40.56C100.284 40.9067 99.9908 41.1467 99.6175 41.28C99.2708 41.4133 98.8175 41.48 98.2575 41.48H74.3375ZM119.663 0.119996V60H107.263V0.119996H119.663ZM140.444 0.119996V60H128.044V0.119996H140.444ZM167.945 17.88C171.092 17.88 173.958 18.3733 176.545 19.36C179.132 20.3467 181.345 21.76 183.185 23.6C185.052 25.44 186.492 27.68 187.505 30.32C188.545 32.9333 189.065 35.88 189.065 39.16C189.065 42.4667 188.545 45.4533 187.505 48.12C186.492 50.76 185.052 53.0133 183.185 54.88C181.345 56.72 179.132 58.1467 176.545 59.16C173.958 60.1467 171.092 60.64 167.945 60.64C164.772 60.64 161.878 60.1467 159.265 59.16C156.678 58.1467 154.438 56.72 152.545 54.88C150.678 53.0133 149.225 50.76 148.185 48.12C147.172 45.4533 146.665 42.4667 146.665 39.16C146.665 35.88 147.172 32.9333 148.185 30.32C149.225 27.68 150.678 25.44 152.545 23.6C154.438 21.76 156.678 20.3467 159.265 19.36C161.878 18.3733 164.772 17.88 167.945 17.88ZM167.945 51.44C170.798 51.44 172.892 50.44 174.225 48.44C175.585 46.4133 176.265 43.3467 176.265 39.24C176.265 35.1333 175.585 32.08 174.225 30.08C172.892 28.08 170.798 27.08 167.945 27.08C165.012 27.08 162.865 28.08 161.505 30.08C160.145 32.08 159.465 35.1333 159.465 39.24C159.465 43.3467 160.145 46.4133 161.505 48.44C162.865 50.44 165.012 51.44 167.945 51.44Z" fill="#393636"/>
<path d="M238.629 12.44H222.229V60H208.709V12.44H192.309V1.72H238.629V12.44ZM260.406 34.28C260.406 33.2933 260.273 32.3333 260.006 31.4C259.766 30.4667 259.353 29.64 258.766 28.92C258.206 28.1733 257.46 27.5733 256.526 27.12C255.593 26.6667 254.46 26.44 253.126 26.44C250.78 26.44 248.94 27.12 247.606 28.48C246.273 29.8133 245.393 31.7467 244.966 34.28H260.406ZM244.806 41.48C245.206 44.9467 246.26 47.4667 247.966 49.04C249.673 50.5867 251.873 51.36 254.566 51.36C256.006 51.36 257.246 51.1867 258.286 50.84C259.326 50.4933 260.246 50.1067 261.046 49.68C261.873 49.2533 262.62 48.8667 263.286 48.52C263.98 48.1733 264.7 48 265.446 48C266.433 48 267.18 48.36 267.686 49.08L271.286 53.52C270.006 54.9867 268.62 56.1867 267.126 57.12C265.66 58.0267 264.14 58.7467 262.566 59.28C261.02 59.7867 259.46 60.1333 257.886 60.32C256.34 60.5333 254.86 60.64 253.446 60.64C250.54 60.64 247.806 60.1733 245.246 59.24C242.713 58.28 240.486 56.8667 238.566 55C236.673 53.1333 235.166 50.8133 234.046 48.04C232.953 45.2667 232.406 42.04 232.406 38.36C232.406 35.5867 232.873 32.96 233.806 30.48C234.766 28 236.126 25.8267 237.886 23.96C239.673 22.0933 241.82 20.6133 244.326 19.52C246.86 18.4267 249.713 17.88 252.886 17.88C255.633 17.88 258.14 18.3067 260.406 19.16C262.7 20.0133 264.66 21.2533 266.286 22.88C267.94 24.5067 269.22 26.5067 270.126 28.88C271.06 31.2267 271.526 33.8933 271.526 36.88C271.526 37.8133 271.486 38.5733 271.406 39.16C271.326 39.7467 271.18 40.2133 270.966 40.56C270.753 40.9067 270.46 41.1467 270.086 41.28C269.74 41.4133 269.286 41.48 268.726 41.48H244.806ZM308.211 28.36C307.838 28.8133 307.478 29.1733 307.131 29.44C306.785 29.7067 306.291 29.84 305.651 29.84C305.038 29.84 304.478 29.6933 303.971 29.4C303.491 29.1067 302.945 28.7867 302.331 28.44C301.718 28.0667 300.998 27.7333 300.171 27.44C299.345 27.1467 298.318 27 297.091 27C295.571 27 294.251 27.28 293.131 27.84C292.038 28.4 291.131 29.2 290.411 30.24C289.691 31.28 289.158 32.56 288.811 34.08C288.465 35.5733 288.291 37.2667 288.291 39.16C288.291 43.1333 289.051 46.1867 290.571 48.32C292.118 50.4533 294.238 51.52 296.931 51.52C298.371 51.52 299.505 51.3467 300.331 51C301.185 50.6267 301.905 50.2267 302.491 49.8C303.078 49.3467 303.611 48.9333 304.091 48.56C304.598 48.1867 305.225 48 305.971 48C306.958 48 307.705 48.36 308.211 49.08L311.811 53.52C310.531 54.9867 309.185 56.1867 307.771 57.12C306.358 58.0267 304.905 58.7467 303.411 59.28C301.945 59.7867 300.465 60.1333 298.971 60.32C297.478 60.5333 296.025 60.64 294.611 60.64C292.078 60.64 289.651 60.16 287.331 59.2C285.038 58.24 283.011 56.8533 281.251 55.04C279.518 53.2 278.131 50.9467 277.091 48.28C276.078 45.6133 275.571 42.5733 275.571 39.16C275.571 36.1733 276.011 33.3867 276.891 30.8C277.798 28.1867 279.118 25.9333 280.851 24.04C282.611 22.12 284.771 20.6133 287.331 19.52C289.918 18.4267 292.905 17.88 296.291 17.88C299.545 17.88 302.398 18.4 304.851 19.44C307.305 20.48 309.518 22 311.491 24L308.211 28.36ZM329.038 22.16C330.531 20.88 332.144 19.8533 333.878 19.08C335.638 18.28 337.731 17.88 340.158 17.88C342.424 17.88 344.424 18.28 346.158 19.08C347.918 19.8533 349.398 20.9467 350.598 22.36C351.798 23.7467 352.704 25.4133 353.318 27.36C353.931 29.28 354.238 31.3733 354.238 33.64V60H341.838V33.64C341.838 31.6133 341.371 30.04 340.438 28.92C339.504 27.7733 338.131 27.2 336.318 27.2C334.958 27.2 333.678 27.4933 332.478 28.08C331.304 28.64 330.158 29.4133 329.038 30.4V60H316.638V0.119996H329.038V22.16ZM388.063 34.28C388.063 33.2933 387.929 32.3333 387.663 31.4C387.423 30.4667 387.009 29.64 386.423 28.92C385.863 28.1733 385.116 27.5733 384.183 27.12C383.249 26.6667 382.116 26.44 380.783 26.44C378.436 26.44 376.596 27.12 375.263 28.48C373.929 29.8133 373.049 31.7467 372.623 34.28H388.063ZM372.463 41.48C372.863 44.9467 373.916 47.4667 375.623 49.04C377.329 50.5867 379.529 51.36 382.223 51.36C383.663 51.36 384.903 51.1867 385.943 50.84C386.983 50.4933 387.903 50.1067 388.703 49.68C389.529 49.2533 390.276 48.8667 390.943 48.52C391.636 48.1733 392.356 48 393.103 48C394.089 48 394.836 48.36 395.343 49.08L398.943 53.52C397.663 54.9867 396.276 56.1867 394.783 57.12C393.316 58.0267 391.796 58.7467 390.223 59.28C388.676 59.7867 387.116 60.1333 385.543 60.32C383.996 60.5333 382.516 60.64 381.103 60.64C378.196 60.64 375.463 60.1733 372.903 59.24C370.369 58.28 368.143 56.8667 366.223 55C364.329 53.1333 362.823 50.8133 361.703 48.04C360.609 45.2667 360.063 42.04 360.063 38.36C360.063 35.5867 360.529 32.96 361.463 30.48C362.423 28 363.783 25.8267 365.543 23.96C367.329 22.0933 369.476 20.6133 371.983 19.52C374.516 18.4267 377.369 17.88 380.543 17.88C383.289 17.88 385.796 18.3067 388.063 19.16C390.356 20.0133 392.316 21.2533 393.943 22.88C395.596 24.5067 396.876 26.5067 397.783 28.88C398.716 31.2267 399.182 33.8933 399.182 36.88C399.182 37.8133 399.143 38.5733 399.063 39.16C398.983 39.7467 398.836 40.2133 398.623 40.56C398.409 40.9067 398.116 41.1467 397.743 41.28C397.396 41.4133 396.943 41.48 396.383 41.48H372.463ZM416.988 24.92C418.268 22.68 419.734 20.92 421.387 19.64C423.068 18.36 424.988 17.72 427.148 17.72C429.014 17.72 430.534 18.16 431.708 19.04L430.908 28.16C430.774 28.7467 430.548 29.1467 430.228 29.36C429.934 29.5733 429.521 29.68 428.988 29.68C428.774 29.68 428.494 29.6667 428.148 29.64C427.801 29.6133 427.441 29.5867 427.068 29.56C426.694 29.5067 426.308 29.4667 425.908 29.44C425.534 29.3867 425.188 29.36 424.868 29.36C423.054 29.36 421.601 29.84 420.508 30.8C419.441 31.76 418.534 33.0933 417.788 34.8V60H405.388V18.52H412.748C413.361 18.52 413.868 18.5733 414.268 18.68C414.694 18.7867 415.041 18.96 415.308 19.2C415.601 19.4133 415.814 19.7067 415.948 20.08C416.108 20.4533 416.241 20.9067 416.348 21.44L416.988 24.92ZM462.294 27.6C461.974 28.1067 461.628 28.4667 461.254 28.68C460.908 28.8933 460.454 29 459.894 29C459.308 29 458.721 28.88 458.134 28.64C457.548 28.3733 456.908 28.0933 456.214 27.8C455.548 27.5067 454.788 27.24 453.934 27C453.081 26.7333 452.108 26.6 451.014 26.6C449.441 26.6 448.228 26.9067 447.374 27.52C446.548 28.1067 446.134 28.9333 446.134 30C446.134 30.7733 446.401 31.4133 446.934 31.92C447.494 32.4267 448.228 32.88 449.134 33.28C450.041 33.6533 451.068 34.0133 452.214 34.36C453.361 34.7067 454.534 35.0933 455.734 35.52C456.934 35.9467 458.108 36.4533 459.254 37.04C460.401 37.6 461.428 38.3067 462.334 39.16C463.241 39.9867 463.961 41 464.494 42.2C465.054 43.4 465.334 44.84 465.334 46.52C465.334 48.5733 464.961 50.4667 464.214 52.2C463.468 53.9333 462.348 55.4267 460.854 56.68C459.388 57.9333 457.561 58.9067 455.374 59.6C453.214 60.2933 450.721 60.64 447.894 60.64C446.481 60.64 445.068 60.5067 443.654 60.24C442.241 59.9733 440.868 59.6133 439.534 59.16C438.228 58.7067 437.014 58.1733 435.894 57.56C434.774 56.92 433.814 56.24 433.014 55.52L435.894 50.96C436.214 50.4267 436.614 50.0133 437.094 49.72C437.601 49.4 438.241 49.24 439.014 49.24C439.734 49.24 440.374 49.4 440.934 49.72C441.521 50.04 442.148 50.3867 442.814 50.76C443.481 51.1333 444.254 51.48 445.134 51.8C446.041 52.12 447.174 52.28 448.534 52.28C449.494 52.28 450.308 52.1867 450.974 52C451.641 51.7867 452.174 51.5067 452.574 51.16C452.974 50.8133 453.268 50.4267 453.454 50C453.641 49.5733 453.734 49.1333 453.734 48.68C453.734 47.8533 453.454 47.1733 452.894 46.64C452.334 46.1067 451.601 45.6533 450.694 45.28C449.788 44.88 448.748 44.52 447.574 44.2C446.428 43.8533 445.254 43.4667 444.054 43.04C442.854 42.6133 441.668 42.1067 440.494 41.52C439.348 40.9067 438.321 40.1467 437.414 39.24C436.508 38.3067 435.774 37.1733 435.214 35.84C434.654 34.5067 434.374 32.8933 434.374 31C434.374 29.24 434.708 27.5733 435.374 26C436.068 24.4 437.094 23 438.454 21.8C439.814 20.6 441.521 19.6533 443.574 18.96C445.628 18.24 448.028 17.88 450.774 17.88C452.268 17.88 453.708 18.0133 455.094 18.28C456.508 18.5467 457.828 18.92 459.054 19.4C460.281 19.88 461.401 20.4533 462.414 21.12C463.428 21.76 464.321 22.4667 465.094 23.24L462.294 27.6Z" fill="#4DD8BF"/>
</g>
<defs>
<filter id="filter0_d_206_3" x="0.639893" y="0.119995" width="468.695" height="68.52" filterUnits="userSpaceOnUse" color-interpolation-filters="sRGB">
<feFlood flood-opacity="0" result="BackgroundImageFix"/>
<feColorMatrix in="SourceAlpha" type="matrix" values="0 0 0 0 0 0 0 0 0 0 0 0 0 0 0 0 0 0 127 0" result="hardAlpha"/>
<feOffset dy="4"/>
<feGaussianBlur stdDeviation="2"/>
<feComposite in2="hardAlpha" operator="out"/>
<feColorMatrix type="matrix" values="0 0 0 0 0 0 0 0 0 0 0 0 0 0 0 0 0 0 0.25 0"/>
<feBlend mode="normal" in2="BackgroundImageFix" result="effect1_dropShadow_206_3"/>
<feBlend mode="normal" in="SourceGraphic" in2="effect1_dropShadow_206_3" result="shape"/>
</filter>
</defs>
</svg>
