<svg width="149" height="135" viewBox="0 0 149 135" fill="none" xmlns="http://www.w3.org/2000/svg">
<circle opacity="0.1" cx="81.5" cy="67.5" r="67.5" fill="url(#paint0_linear_209_13)"/>
<path fill-rule="evenodd" clip-rule="evenodd" d="M76.4226 66.5012C64.643 66.5012 55.0938 74.8799 55.0938 85.2155V85.2633C55.0938 95.5989 64.643 103.978 76.4226 103.978H107.876C109.051 103.978 110.204 103.894 111.327 103.734L117.421 108.898C117.587 109.039 117.808 109.117 118.039 109.117C118.529 109.117 118.927 108.768 118.927 108.338L118.928 101.273C125.089 97.9914 129.205 92.0491 129.205 85.2633V85.2155C129.205 74.8799 119.656 66.5012 107.876 66.5012H76.4226Z" fill="#24B097"/>
<path d="M81.5967 21.6649H36.6856C19.8576 21.6649 6.21582 33.6344 6.21582 48.3996C6.21582 63.1648 19.8576 75.1344 36.6856 75.1344H81.5967C98.4247 75.1344 112.066 63.1648 112.066 48.3996C112.066 33.6344 98.4247 21.6649 81.5967 21.6649Z" fill="#25C8A1"/>
<path fill-rule="evenodd" clip-rule="evenodd" d="M20.895 67.3577V81.3535C20.895 81.9688 21.4634 82.4675 22.1646 82.4675C22.4934 82.4675 22.8095 82.3555 23.0461 82.1552L34.7678 72.2316L20.895 67.3577Z" fill="#25C8A1"/>
<path d="M38.7487 51.7415C41.4657 51.7415 43.6683 49.8089 43.6683 47.4249C43.6683 45.041 41.4657 43.1084 38.7487 43.1084C36.0317 43.1084 33.8291 45.041 33.8291 47.4249C33.8291 49.8089 36.0317 51.7415 38.7487 51.7415Z" fill="white"/>
<path d="M58.903 51.7415C61.62 51.7415 63.8226 49.8089 63.8226 47.4249C63.8226 45.041 61.62 43.1084 58.903 43.1084C56.186 43.1084 53.9834 45.041 53.9834 47.4249C53.9834 49.8089 56.186 51.7415 58.903 51.7415Z" fill="white"/>
<path d="M79.5339 51.7415C82.2509 51.7415 84.4535 49.8089 84.4535 47.4249C84.4535 45.041 82.2509 43.1084 79.5339 43.1084C76.8168 43.1084 74.6143 45.041 74.6143 47.4249C74.6143 49.8089 76.8168 51.7415 79.5339 51.7415Z" fill="white"/>
<defs>
<linearGradient id="paint0_linear_209_13" x1="175.583" y1="-204.224" x2="74.4065" y2="149.495" gradientUnits="userSpaceOnUse">
<stop stop-color="#5498FF"/>
<stop offset="0.515625" stop-color="#428EFF"/>
<stop offset="1" stop-color="#297FFF"/>
</linearGradient>
</defs>
</svg>
